PathFileType	4	(X/Y/Z)	pose2sim_0-881.trc
DataRate	CameraRate	NumFrames	NumMarkers	Units	OrigDataRate	OrigDataStartFrame	OrigNumFrames
50	50	6	22	m	50	551	882
Frame#	Time	Hip			RHip			RKnee			RAnkle			RBigToe			RSmallToe			RHeel			LHip			LKnee			LAnkle			LBigToe			LSmallToe			LHeel			Neck			Head			Nose			RShoulder			RElbow			RWrist			LShoulder			LElbow			LWrist			
		X1	Y1	Z1	X2	Y2	Z2	X3	Y3	Z3	X4	Y4	Z4	X5	Y5	Z5	X6	Y6	Z6	X7	Y7	Z7	X8	Y8	Z8	X9	Y9	Z9	X10	Y10	Z10	X11	Y11	Z11	X12	Y12	Z12	X13	Y13	Z13	X14	Y14	Z14	X15	Y15	Z15	X16	Y16	Z16	X17	Y17	Z17	X18	Y18	Z18	X19	Y19	Z19	X20	Y20	Z20	X21	Y21	Z21	X22	Y22	Z22	
551	11.02	0.13438034149619765	0.9754098695884276	-0.04325463559113901	0.03438322704084981	0.9626334412319096	-0.03597154673459101	0.012810785447864521	0.5232007028483021	-0.06493026219236385	0.0013269346809017678	0.09580430757522287	-0.08263078478435656	0.008611593871259544	0.03593669801497442	0.07431297013402957	-0.041731415233312155	0.040010447015276375	0.036470814786141295	0.008617169291655362	0.05237208453770328	-0.12230309978979911	0.2399533816735259	0.9592814087760502	-0.05948916712422862	0.24021440335727715	0.5269534635310974	-0.1046850969280122	0.24611800308896964	0.0918999566209722	-0.10901877854025033	0.28345765516809573	0.0391445548265397	0.0840887057667826	0.3263113892113114	0.04001273787646672	0.027947494854658778	0.23013736465161203	0.04171796551770278	-0.14707023063192817	0.14857830052605878	1.5811674056518417	-0.06997533496574446	0.14183918051942465	1.8249669724677267	-0.03824034727761837	0.15986290211457163	1.6958979835189885	0.11175591892484903	-0.010465673912066495	1.4751941233112658	-0.06018319135163011	-0.06671810279956537	1.210221600295007	-0.006668054805782496	-0.09939362364416919	1.2651805299721839	0.25554080413523717	0.31727369221530877	1.4715945784229845	-0.09430244520938665	0.3711248735565813	1.2091328783516013	-0.04387226858113576	0.45963915276685463	1.258833425166133	0.22358066384149075
552	11.04	0.13665766217486364	0.9837848245820947	-0.0403601195515973	0.03332738611448643	0.9725103813627399	-0.03214761100320835	0.0153297752234469	0.5236119944084316	-0.07136454378252252	0.0021761115205601875	0.08749968425977428	-0.08302244719571575	-0.002811320070728185	0.038424904164430965	0.10373965832188956	-0.051510591818978435	0.038420463210465716	0.04840829694867168	0.011851302730191332	0.04094438642227343	-0.1256743968252072	0.23784057312925944	0.9675059425574529	-0.05003405908719618	0.24051769219508498	0.5224268099293222	-0.101638469803524	0.24591274826495624	0.0897301221267297	-0.10708307259830366	0.28642236170369434	0.035257276682284115	0.09458283449284896	0.3219764516185613	0.03160493689774327	0.031559088487231615	0.22571154379017241	0.03925707679301543	-0.1451844510919864	0.14902646137524522	1.57903609426857	-0.07312553402371895	0.1458584354144526	1.8206115415136794	-0.042314740709686216	0.15252208280340648	1.6991753671963248	0.07779078053188625	-0.015262966658493289	1.4734741422379538	-0.06440777368990709	-0.0674377028728869	1.205853275543466	-0.0010378937110008951	-0.11193082154132541	1.2709648475498185	0.2651580632906207	0.31439151833457074	1.4739700994376133	-0.08862661735915525	0.3687774148783978	1.206080258198429	-0.021501870581407314	0.45425063686509765	1.2730265574599124	0.2183962363339784
553	11.06	0.13594929604901995	0.976500046126882	-0.04530080689507294	0.032666625644773364	0.9650502672154173	-0.03638846921022303	0.012553510891889653	0.5220570518186936	-0.07038981443136998	0.0019887803664159235	0.09681783574838755	-0.0845736582097586	0.005859833729166613	0.03972048655660431	0.07879698275152035	-0.04434928288956229	0.04199374724336677	0.03890725882062435	0.010909044100373907	0.05461842959094573	-0.11984309806684111	0.2418265494201372	0.9625330955908284	-0.05987456726992484	0.2420497270375346	0.5244847244197677	-0.10351163301868094	0.2464591867750714	0.0916605502653717	-0.10948775568657676	0.2840778351074678	0.03679593925211953	0.08056827675104186	0.32723014336680967	0.0396091134930496	0.016524795797726474	0.22756821912756994	0.044099137994353665	-0.14351979075164714	0.14900762865024175	1.578520575654262	-0.06635269288030624	0.1441761211680686	1.8225633131398709	-0.025126056269924715	0.15848011324472308	1.6934555583646367	0.12357988025437225	-0.011523924864405588	1.475005700296035	-0.05328323251092361	-0.06708886335621284	1.2202267039634471	0.0013379321940668136	-0.09188523102675464	1.302502646410839	0.27559866452756926	0.3148104902024992	1.472639073956306	-0.09677723589230304	0.37152544593852427	1.2100663681567605	-0.029390047910492004	0.4348167103530342	1.2868735738027224	0.217852627755867
554	11.08	0.1360032695362447	0.9764112025077227	-0.04426457574674292	0.03313265228306699	0.9654052484861936	-0.035105462675858755	0.012923565837003666	0.5242004219010121	-0.06666062973265016	0.0035172158545944358	0.09400110603385127	-0.08470294529446669	0.009609354281397213	0.03528552859587938	0.0748629886379951	-0.04196417330305753	0.03903667146439465	0.03543956363114025	0.014164568465123015	0.04911206174078762	-0.12607739586292147	0.24324932656082118	0.9618345599070623	-0.05515481264562471	0.24204462198702684	0.5259792770209831	-0.09659490151773382	0.2460936915471804	0.09483736872850525	-0.10399179586137236	0.2811612506317832	0.03550766290929769	0.07461439675274484	0.32364391162871375	0.041130993962489745	0.016225992512310997	0.2298125954853881	0.046256701066106305	-0.1444133843918783	0.14916219752029217	1.579859000510196	-0.06592153372293735	0.14725161832377562	1.825659387307961	-0.024993201517374317	0.15690097108150658	1.693958234381832	0.10950645997043033	-0.009512202789707656	1.4778804650049233	-0.055501628799772	-0.06861319411349712	1.2174896804473763	0.015328288162958573	-0.08535136893556404	1.3279953995331646	0.2687051759178013	0.31593671012783325	1.4746734108583632	-0.09987661457297696	0.3727285733208945	1.2111049843767492	-0.01898661700614398	0.4358040133236115	1.3044744039774703	0.21724608615626934
555	11.1	0.13460627171220838	0.9782809700182515	-0.04217004908437139	0.03213996585096021	0.967064435967575	-0.033454400070396455	0.013169085249702289	0.5238700864670601	-0.06963988693948113	0.004016584280265128	0.09468149392890926	-0.08416921033306976	0.010155517355082208	0.03537609282304608	0.07121703009908827	-0.04094001863376676	0.039665024095381377	0.028550813902916836	0.012835480179953031	0.05424588287132178	-0.1261483179371146	0.24051399264480455	0.9618853966051224	-0.05903445700225554	0.24216846973090653	0.5255659640259549	-0.10010904118833894	0.24468986876687077	0.09558520616889973	-0.10594521554996074	0.2813911924360793	0.03791556470228507	0.0757804481291021	0.32388757646524785	0.04199427885955988	0.020120091714412168	0.22906241641943223	0.0499605116935815	-0.14180590661194883	0.15063583658465274	1.5777875680805584	-0.06600458323249264	0.14626020758710578	1.8238155138898386	-0.018470640984777145	0.15995178598470383	1.6935235555985095	0.11826917656059475	-0.011427942661949238	1.4772740319772364	-0.0612585953544976	-0.06690254285796263	1.2234918965483803	0.02177193737273944	-0.08228972471320592	1.3423837374382226	0.27348830744183916	0.31488383461117475	1.473687664236334	-0.10028305169049376	0.37176234812513703	1.2107941487951925	-0.01723345867417427	0.4312028959408641	1.3277216339837077	0.21579045106089384
556	11.12	0.13455532975166046	0.9848571297881792	-0.039079022338790875	0.03174792754003673	0.9715583123209391	-0.03166866625576097	0.012653256624695634	0.5214924844331916	-0.07080537965959632	0.0026909299593139003	0.08787237981466084	-0.08531624503452663	0.0019518867602210611	0.03573216555876976	0.09935192455878725	-0.04780749903072475	0.035886241645557336	0.049034704523348537	0.010104906769988578	0.04119043090493212	-0.12436149830585358	0.23804367653354927	0.9684106046221652	-0.04728440519512964	0.24046779544847688	0.5237135522759222	-0.0993284669054745	0.24447651325191141	0.0888219249239683	-0.10803715933121524	0.28521765814506295	0.033619535725249776	0.10173156210411631	0.3227635615259138	0.03130820455773345	0.033181278605471216	0.227273538083458	0.03873743359648291	-0.14682771936925978	0.15056454108436865	1.577451117498172	-0.06885887527196698	0.1473039677899889	1.8203678525302849	-0.03223910802188319	0.15224553068369373	1.6972215433777547	0.08786282160958402	-0.013552166076385841	1.477468614641882	-0.05549943404594107	-0.06717686880170932	1.2070533170420663	0.043502163804846505	-0.09579463240463935	1.3403024761537952	0.24991214782736515	0.312515151487811	1.474351911261818	-0.08751661089749203	0.374519278171217	1.207538033851786	0.00020970502588428354	0.4362917053911532	1.3447690942216928	0.21182719968924812
